<svg height="24px" viewBox="13 4 74 92" version="1.1" xmlns="http://www.w3.org/2000/svg" xmlns:xlink="http://www.w3.org/1999/xlink">
    <!-- Generator: Sketch 39.1 (31720) - http://www.bohemiancoding.com/sketch -->
    <desc>Created with Sketch.</desc>
    <defs></defs>
    <path d="M86.576,84.239 C86.474,83.799 86.128,83.458 85.687,83.363 C84.246,83.052 82.808,82.674 81.416,82.236 C66.969,77.707 55.8,66.938 50.77,52.692 C45.739,38.445 47.67,23.05 56.07,10.454 C56.882,9.236 57.762,8.039 58.687,6.895 C58.971,6.544 59.026,6.061 58.83,5.655 C58.632,5.25 58.219,4.994 57.768,5 C52.889,5.064 48.06,5.928 43.414,7.568 C20.018,15.829 7.704,41.584 15.965,64.98 C24.226,88.377 49.982,100.691 73.379,92.43 C78.024,90.79 82.324,88.431 86.162,85.416 C86.516,85.138 86.678,84.679 86.576,84.239 L86.576,84.239 Z" id="Shape" stroke="none" fill="#f2f2f2" fill-rule="evenodd"></path>
</svg>
