<svg width="26px" viewBox="0 0 99 100" version="1.1" xmlns="http://www.w3.org/2000/svg" xmlns:xlink="http://www.w3.org/1999/xlink">
    <!-- Generator: Sketch 39.1 (31720) - http://www.bohemiancoding.com/sketch -->
    <desc>Created with Sketch.</desc>
    <defs></defs>
    <path d="M22.714,32.172 L23.517,31.048 C23.685,30.815 23.877,30.592 24.053,30.36 L24.08,30.423 L25.01,29.31 C26.228,27.846 27.616,26.427 29.064,25.206 L30.178,24.266 L30.125,24.24 C30.327,24.089 30.518,23.916 30.723,23.766 L31.823,22.96 L14.537,14.608 L15.502,16.679 L22.714,32.172 L22.714,32.172 Z" id="Shape" stroke="none" fill="#111111" fill-rule="evenodd"></path>
    <path d="M17.846,55.055 C17.804,54.788 17.786,54.513 17.75,54.243 L17.826,54.268 L17.698,52.819 C17.617,51.881 17.568,50.941 17.568,50 C17.568,49.002 17.613,48.016 17.698,47.042 L17.83,45.583 L17.752,45.615 C17.787,45.342 17.804,45.07 17.846,44.803 L18.063,43.444 L16.781,43.904 L0,49.929 L18.058,56.409 L17.846,55.055 L17.846,55.055 Z" id="Shape" stroke="none" fill="#111111" fill-rule="evenodd"></path>
    <path d="M45.2,17.936 L45.173,18.017 L46.607,17.884 C47.555,17.802 48.506,17.753 49.466,17.753 C50.426,17.753 51.378,17.802 52.326,17.884 L53.759,18.017 L53.731,17.936 C54,17.973 54.273,17.99 54.539,18.034 L55.878,18.253 L49.465,0 L48.706,2.163 L43.05,18.252 L44.394,18.033 C44.66,17.99 44.933,17.973 45.2,17.936 L45.2,17.936 Z" id="Shape" stroke="none" fill="#111111" fill-rule="evenodd"></path>
    <path d="M68.833,24.266 L68.826,24.266 L69.089,24.489 C69.629,24.915 70.12,25.395 70.63,25.855 C71.566,26.693 72.453,27.59 73.287,28.531 C73.724,29.023 74.172,29.502 74.577,30.021 L74.914,30.432 L74.92,30.42 C75.082,30.631 75.257,30.832 75.413,31.05 L76.208,32.168 L84.478,14.6 L82.421,15.595 L67.109,22.967 L68.209,23.768 C68.424,23.923 68.624,24.101 68.833,24.266 L68.833,24.266 Z" id="Shape" stroke="none" fill="#111111" fill-rule="evenodd"></path>
    <path d="M80.867,56.479 L98.932,49.993 L80.867,43.518 L81.085,44.872 C81.125,45.139 81.146,45.414 81.181,45.684 L81.103,45.652 L81.234,47.111 C81.314,48.067 81.364,49.03 81.364,50.001 C81.364,50.969 81.314,51.933 81.234,52.888 L81.103,54.344 L81.181,54.315 C81.146,54.586 81.125,54.86 81.085,55.127 L80.867,56.479 L80.867,56.479 Z" id="Shape" stroke="none" fill="#111111" fill-rule="evenodd"></path>
    <path d="M53.734,82.062 L53.762,81.981 L52.324,82.114 C51.376,82.196 50.425,82.246 49.464,82.246 C48.504,82.246 47.553,82.196 46.605,82.114 L45.167,81.981 L45.196,82.062 C44.929,82.023 44.657,82.004 44.394,81.962 L43.055,81.748 L43.507,83.038 L49.461,100 L55.876,81.745 L54.537,81.962 C54.273,82.004 54.002,82.022 53.734,82.062 L53.734,82.062 Z" id="Shape" stroke="none" fill="#111111" fill-rule="evenodd"></path>
    <path d="M75.413,68.945 C75.266,69.155 75.097,69.345 74.943,69.55 L74.92,69.497 L73.989,70.623 C72.989,71.835 71.863,73.002 70.7,74.065 C70.103,74.601 69.532,75.172 68.899,75.662 C68.687,75.824 68.488,76.002 68.273,76.162 L67.18,76.964 L84.489,85.333 L76.208,67.838 L75.413,68.945 L75.413,68.945 Z" id="Shape" stroke="none" fill="#111111" fill-rule="evenodd"></path>
    <path d="M30.035,75.682 L30.097,75.653 L29.001,74.722 C27.57,73.511 26.209,72.134 25.01,70.689 L24.085,69.578 L24.056,69.64 C23.88,69.406 23.687,69.185 23.517,68.947 L22.719,67.833 L22.137,69.075 L14.536,85.306 L31.831,77.038 L30.722,76.229 C30.486,76.059 30.265,75.862 30.035,75.682 L30.035,75.682 Z" id="Shape" stroke="none" fill="#111111" fill-rule="evenodd"></path>
    <path d="M72.22,66.818 C75.895,61.735 77.675,55.835 77.675,49.992 C77.675,41.224 73.682,32.569 66.154,26.986 C61.126,23.26 55.29,21.466 49.507,21.466 C40.835,21.466 32.274,25.5 26.756,33.116 C23.069,38.186 21.295,44.095 21.295,49.943 C21.295,58.708 25.286,67.368 32.82,72.948 C37.835,76.664 43.679,78.466 49.461,78.466 C58.133,78.467 66.699,74.43 72.22,66.818 L72.22,66.818 Z" id="Shape" stroke="none" fill="#111111" fill-rule="evenodd"></path>
</svg>
